<svg width="719" height="226" viewBox="0 0 719 226" fill="none" xmlns="http://www.w3.org/2000/svg">
<path d="M224.861 18.137C225.779 18.497 226.643 18.587 227.453 18.407C228.263 18.209 229.01 17.57 229.694 16.49L230.612 15.032L230.801 14.789L238.037 1.09999H240.035L231.449 16.922C230.873 18.02 230.189 18.839 229.397 19.379C228.623 19.919 227.795 20.207 226.913 20.243C226.049 20.279 225.176 20.117 224.294 19.757L224.861 18.137ZM230.747 16.598L222.566 1.09999H224.699L231.827 14.951L230.747 16.598Z" fill="black"/>
<path d="M258.585 1.09999H260.556V20H258.585V1.09999ZM246.759 20H244.761V1.09999H246.759V20ZM258.774 11.279H246.543V9.52399H258.774V11.279Z" fill="black"/>
<path d="M268.556 20V1.09999H270.527V16.76L282.623 1.09999H284.432V20H282.461V4.36699L270.365 20H268.556Z" fill="black"/>
<path d="M292.43 20V1.09999H300.287C302.285 1.09999 303.851 1.51399 304.985 2.34199C306.137 3.15199 306.713 4.34899 306.713 5.93299C306.713 7.49899 306.164 8.68699 305.066 9.49699C303.968 10.289 302.528 10.685 300.746 10.685L301.205 10.01C303.311 10.01 304.913 10.424 306.011 11.252C307.109 12.08 307.658 13.295 307.658 14.897C307.658 16.517 307.082 17.777 305.93 18.677C304.796 19.559 303.086 20 300.8 20H292.43ZM294.401 18.407H300.8C302.402 18.407 303.617 18.11 304.445 17.516C305.273 16.922 305.687 16.004 305.687 14.762C305.687 13.538 305.273 12.638 304.445 12.062C303.617 11.486 302.402 11.198 300.8 11.198H294.401V18.407ZM294.401 9.65899H300.179C301.637 9.65899 302.753 9.37099 303.527 8.79499C304.319 8.20099 304.715 7.32799 304.715 6.17599C304.715 5.02399 304.319 4.15999 303.527 3.58399C302.753 2.98999 301.637 2.69299 300.179 2.69299H294.401V9.65899Z" fill="black"/>
<path d="M316.056 9.55099H326.046V11.252H316.056V9.55099ZM316.272 18.272H327.639V20H314.274V1.09999H327.234V2.82799H316.272V18.272Z" fill="black"/>
<path d="M333.692 20V1.09999H340.766C342.368 1.09999 343.745 1.36099 344.897 1.88299C346.049 2.38699 346.931 3.12499 347.543 4.09699C348.173 5.05099 348.488 6.21199 348.488 7.57999C348.488 8.91199 348.173 10.064 347.543 11.036C346.931 11.99 346.049 12.728 344.897 13.25C343.745 13.772 342.368 14.033 340.766 14.033H334.799L335.69 13.088V20H333.692ZM335.69 13.25L334.799 12.278H340.712C342.602 12.278 344.033 11.873 345.005 11.063C345.995 10.235 346.49 9.07399 346.49 7.57999C346.49 6.06799 345.995 4.89799 345.005 4.06999C344.033 3.24199 342.602 2.82799 340.712 2.82799H334.799L335.69 1.88299V13.25Z" fill="black"/>
<path d="M362.716 20.162C361.294 20.162 359.98 19.928 358.774 19.46C357.568 18.974 356.524 18.299 355.642 17.435C354.76 16.571 354.067 15.554 353.563 14.384C353.077 13.214 352.834 11.936 352.834 10.55C352.834 9.16399 353.077 7.88599 353.563 6.71599C354.067 5.54599 354.76 4.52899 355.642 3.66499C356.542 2.80099 357.595 2.13499 358.801 1.66699C360.007 1.18099 361.321 0.937988 362.743 0.937988C364.111 0.937988 365.398 1.17199 366.604 1.63999C367.81 2.08999 368.827 2.77399 369.655 3.69199L368.386 4.96099C367.612 4.16899 366.757 3.60199 365.821 3.25999C364.885 2.89999 363.877 2.71999 362.797 2.71999C361.663 2.71999 360.61 2.91799 359.638 3.31399C358.666 3.69199 357.82 4.24099 357.1 4.96099C356.38 5.66299 355.813 6.49099 355.399 7.44499C355.003 8.38099 354.805 9.41599 354.805 10.55C354.805 11.684 355.003 12.728 355.399 13.682C355.813 14.618 356.38 15.446 357.1 16.166C357.82 16.868 358.666 17.417 359.638 17.813C360.61 18.191 361.663 18.38 362.797 18.38C363.877 18.38 364.885 18.2 365.821 17.84C366.757 17.48 367.612 16.904 368.386 16.112L369.655 17.381C368.827 18.299 367.81 18.992 366.604 19.46C365.398 19.928 364.102 20.162 362.716 20.162Z" fill="black"/>
<path d="M375.401 20V1.09999H377.372V16.76L389.468 1.09999H391.277V20H389.306V4.36699L377.21 20H375.401Z" fill="black"/>
<path d="M403.028 20V2.28799L403.568 2.82799H396.386V1.09999H411.641V2.82799H404.486L404.999 2.28799V20H403.028Z" fill="black"/>
<path d="M418.55 9.55099H428.54V11.252H418.55V9.55099ZM418.766 18.272H430.133V20H416.768V1.09999H429.728V2.82799H418.766V18.272Z" fill="black"/>
<path d="M439.939 20V2.28799L440.479 2.82799H433.297V1.09999H448.552V2.82799H441.397L441.91 2.28799V20H439.939Z" fill="black"/>
<path d="M237.516 225.262V175.652L240.55 178.686H219.23V167.862H269.004V178.686H247.684L250.636 175.652V225.262H237.516Z" fill="black"/>
<path d="M269.625 225.262L295.209 167.862H308.329L333.995 225.262H320.055L299.063 174.586H304.311L283.237 225.262H269.625ZM282.417 212.962L285.943 202.876H315.463L319.071 212.962H282.417Z" fill="black"/>
<path d="M377.522 214.438L374.57 217.472V167.862H387.773V217.472L384.656 214.438H408.928L405.812 217.472V167.862H419.014V225.262H343.246V167.862H356.449V217.472L353.415 214.438H377.522Z" fill="black"/>
<path d="M472.04 225.262L454.164 197.628L464.906 191.15L487.128 225.262H472.04ZM434.73 225.262V167.862H447.932V225.262H434.73ZM444.078 202.138V191.068H464.086V202.138H444.078ZM466.136 198.038L453.918 196.562L472.532 167.862H486.554L466.136 198.038Z" fill="black"/>
<path d="M507.209 190.986H534.843V201.318H507.209V190.986ZM508.193 214.602H539.435V225.262H494.991V167.862H538.369V178.522H508.193V214.602Z" fill="black"/>
<path d="M591.165 167.862H604.449V225.262H591.165V167.862ZM565.089 225.262H551.805V167.862H565.089V225.262ZM592.149 201.728H564.105V190.494H592.149V201.728Z" fill="black"/>
<path d="M632.853 225.262V175.652L635.887 178.686H614.567V167.862H664.341V178.686H643.021L645.973 175.652V225.262H632.853Z" fill="black"/>
<path d="M686.54 190.986H714.174V201.318H686.54V190.986ZM687.523 214.602H718.766V225.262H674.322V167.862H717.7V178.522H687.523V214.602Z" fill="black"/>
<path d="M1.82376 224V224.754H2.57812H111.943C140.131 224.754 161.665 219.247 176.431 208.119L176.432 208.118C191.424 196.766 198.922 181.217 198.922 161.551C198.922 142.531 191.961 127.919 178.004 117.828C172.455 113.816 166.016 110.611 158.691 108.208C161.943 106.548 165.001 104.666 167.865 102.563L167.871 102.559C181.602 92.2602 188.46 77.8685 188.46 59.4771C188.46 40.8588 181.166 26.4606 166.579 16.3785C152.035 6.32632 131.787 1.34573 105.92 1.34573H2.57812H1.82376V2.1001V224ZM136.53 137.426L136.537 137.431L136.544 137.436C142.431 141.699 145.425 148.311 145.425 157.43C145.425 166.984 142.422 173.915 136.53 178.385C130.586 182.894 121.795 185.206 110.041 185.206H54.3695V130.605H110.041C121.795 130.605 130.586 132.917 136.53 137.426ZM126.366 47.6989L126.372 47.7043L126.379 47.7096C131.859 51.9721 134.647 58.3831 134.647 67.0851C134.647 75.7826 131.861 82.3069 126.372 86.7831C120.854 91.0716 112.597 93.2757 101.482 93.2757H54.3695V40.8945H101.482C112.596 40.8945 120.849 43.2036 126.366 47.6989Z" stroke="black" stroke-width="1.50874"/>
<path d="M0.570312 149V39.8H100.098V149H74.9823V54.62L80.7543 60.392H19.9143L25.6863 54.62V149H0.570312Z" fill="#FFA502"/>
<path d="M140.272 128.408C146.304 130.176 151.348 130.696 155.404 129.968C159.564 129.136 163.256 126.224 166.48 121.232L171.784 113.276L174.124 110.624L210.316 39.8H235.12L188.632 126.224C184.472 134.024 179.532 140.004 173.812 144.164C168.196 148.324 162.008 150.664 155.248 151.184C148.488 151.808 141.468 150.612 134.188 147.596L140.272 128.408ZM173.656 131.684L124.36 39.8H151.348L187.54 113.12L173.656 131.684Z" fill="#FFA502"/>
<path d="M327.103 108.284C321.695 110.468 316.495 112.132 311.503 113.276C306.511 114.316 301.727 114.836 297.151 114.836C282.487 114.836 271.255 111.352 263.455 104.384C255.655 97.312 251.755 87.172 251.755 73.964V39.8H276.715V71.156C276.715 78.644 278.743 84.312 282.799 88.16C286.855 91.904 292.627 93.776 300.115 93.776C304.899 93.776 309.527 93.256 313.999 92.216C318.471 91.072 322.631 89.46 326.479 87.38L327.103 108.284ZM323.515 149V39.8H348.475V149H323.515Z" fill="#FFA502"/>
<path d="M437.242 150.872C428.61 150.872 420.602 149.468 413.218 146.66C405.938 143.852 399.594 139.9 394.186 134.804C388.882 129.708 384.722 123.728 381.706 116.864C378.794 110 377.338 102.512 377.338 94.4C377.338 86.288 378.794 78.8 381.706 71.936C384.722 65.072 388.934 59.092 394.342 53.996C399.75 48.9 406.094 44.948 413.374 42.14C420.654 39.332 428.558 37.928 437.086 37.928C445.718 37.928 453.622 39.332 460.798 42.14C468.078 44.948 474.37 48.9 479.674 53.996C485.082 59.092 489.294 65.072 492.31 71.936C495.326 78.696 496.834 86.184 496.834 94.4C496.834 102.512 495.326 110.052 492.31 117.02C489.294 123.884 485.082 129.864 479.674 134.96C474.37 139.952 468.078 143.852 460.798 146.66C453.622 149.468 445.77 150.872 437.242 150.872ZM437.086 129.344C441.974 129.344 446.446 128.512 450.502 126.848C454.662 125.184 458.302 122.792 461.422 119.672C464.542 116.552 466.934 112.86 468.598 108.596C470.366 104.332 471.25 99.6 471.25 94.4C471.25 89.2 470.366 84.468 468.598 80.204C466.934 75.94 464.542 72.248 461.422 69.128C458.406 66.008 454.818 63.616 450.658 61.952C446.498 60.288 441.974 59.456 437.086 59.456C432.198 59.456 427.674 60.288 423.514 61.952C419.458 63.616 415.87 66.008 412.75 69.128C409.63 72.248 407.186 75.94 405.418 80.204C403.754 84.468 402.922 89.2 402.922 94.4C402.922 99.496 403.754 104.228 405.418 108.596C407.186 112.86 409.578 116.552 412.594 119.672C415.714 122.792 419.354 125.184 423.514 126.848C427.674 128.512 432.198 129.344 437.086 129.344Z" fill="#FFA502"/>
<path d="M600.543 39.8H625.815V149H600.543V39.8ZM550.935 149H525.663V39.8H550.935V149ZM602.415 104.228H549.063V82.856H602.415V104.228Z" fill="#FFA502"/>
</svg>
