<svg width="23" height="35" viewBox="0 0 23 35" fill="none" xmlns="http://www.w3.org/2000/svg">
<path fill-rule="evenodd" clip-rule="evenodd" d="M11.509 0H11.4897C4.61544 0 0 1.32757 0 1.32757V18.7689V18.8011C0 22.6551 0.922958 25.8937 2.68848 28.5387C2.94189 28.9171 3.2101 29.2817 3.4976 29.638C3.50764 29.6484 3.51648 29.6598 3.52397 29.672C3.56063 29.7137 3.596 29.7566 3.63202 29.7982C3.64617 29.8133 3.65517 29.8266 3.66804 29.8392C4.85984 31.262 6.29992 32.3827 8.03456 33.4082C8.90092 33.9178 9.57819 34.2091 10.579 34.6216C10.5822 34.6216 10.6394 34.65 10.7256 34.6847L11.4897 35L11.4981 34.9937L11.509 35L12.2712 34.6847C12.3593 34.6506 12.4152 34.6216 12.4185 34.6216C13.4192 34.2091 14.2329 33.8446 15.1018 33.3306C16.8384 32.3051 18.1427 31.262 19.3326 29.8392L19.368 29.7982C19.4027 29.7572 19.4407 29.7143 19.476 29.672C19.4844 29.6594 19.4934 29.6487 19.5018 29.638C19.7886 29.2817 20.0568 28.9165 20.3089 28.5387C22.0783 25.8937 23 22.6551 23 18.8011V18.7689V1.32757C23 1.32757 18.3813 0 11.509 0Z" fill="#646361"/>
<mask id="mask0_108_623" style="mask-type:alpha" maskUnits="userSpaceOnUse" x="1" y="9" width="21" height="25">
<path fill-rule="evenodd" clip-rule="evenodd" d="M1.78992 10.6401L1.21106 10.7662V18.7625C1.21106 25.8356 4.53821 30.8015 11.0973 33.5241L11.5476 33.7133L11.9978 33.5241C18.5582 30.8015 21.884 25.8356 21.884 18.7625L21.8808 10.7649L21.302 10.6388C21.1013 10.5953 16.2936 9.54395 11.5443 9.54395C6.79512 9.54395 1.99381 10.5953 1.78992 10.6401Z" fill="url(#paint0_linear_108_623)"/>
</mask>
<g mask="url(#mask0_108_623)">
<path fill-rule="evenodd" clip-rule="evenodd" d="M1.78992 10.6401L1.21106 10.7662V18.7625C1.21106 25.8356 4.53821 30.8015 11.0973 33.5241L11.5476 33.7133L11.9978 33.5241C18.5582 30.8015 21.884 25.8356 21.884 18.7625L21.8808 10.7649L21.302 10.6388C21.1013 10.5953 16.2936 9.54395 11.5443 9.54395C6.79512 9.54395 1.99381 10.5953 1.78992 10.6401Z" fill="url(#paint1_linear_108_623)"/>
<path d="M20.5257 20.8416C20.2775 20.7073 20.0292 20.5893 19.7841 20.4809C20.0292 20.373 20.2775 20.2563 20.5283 20.1245C22.1187 19.2967 23.4837 18.1072 24.5089 16.6558C24.5842 16.548 24.6568 16.4401 24.727 16.3298C24.6041 16.278 24.4806 16.2345 24.3552 16.1872C22.6601 15.5933 20.8448 15.4051 19.0606 15.6385C18.7801 15.6757 18.5094 15.723 18.2424 15.7748C18.3769 15.5483 18.5094 15.3087 18.6322 15.0602C19.4341 13.4523 19.8267 11.6778 19.7764 9.88866C19.7706 9.75874 19.7655 9.62945 19.7533 9.49764C19.6246 9.5298 19.496 9.56449 19.3674 9.59918C17.6171 10.1022 16.0167 11.0124 14.7024 12.2524C14.514 12.4296 14.3371 12.6088 14.1705 12.7879C14.1428 12.5482 14.11 12.3041 14.0637 12.0519C13.7492 10.2885 13.004 8.62598 11.8917 7.20639C11.8094 7.10548 11.7251 7.00394 11.6409 6.9043C11.5551 7.00394 11.4717 7.10548 11.3907 7.20891C10.2733 8.62289 9.52287 10.2818 9.20389 12.043C9.15758 12.2953 9.1222 12.5394 9.09519 12.7816C8.92861 12.6025 8.75495 12.4227 8.56778 12.2461C7.25731 11.0002 5.65873 10.0838 3.90861 9.57521C3.77998 9.54052 3.65134 9.50836 3.52271 9.47556C3.51177 9.60548 3.50663 9.73477 3.50084 9.86658C3.44369 11.6544 3.83017 13.4291 4.62704 15.0381C4.7396 15.2671 4.85858 15.4872 4.9795 15.6984C4.73702 15.6493 4.4894 15.6038 4.23277 15.5723C2.42612 15.3162 0.583046 15.4954 -1.13711 16.0945C-1.26575 16.138 -1.38731 16.1834 -1.5108 16.2326C-1.43876 16.343 -1.36608 16.4534 -1.2934 16.5612C-0.268238 18.0412 1.10758 19.2555 2.71616 20.0999C2.94513 20.221 3.17153 20.3308 3.396 20.4323C3.17153 20.5294 2.94578 20.6373 2.71359 20.7584C1.09924 21.5934 -0.284868 22.7993 -1.32042 24.2731C-1.39374 24.3791 -1.46577 24.4894 -1.53845 24.6017C-1.41496 24.649 -1.28954 24.6963 -1.16348 24.7398C0.551988 25.3485 2.39254 25.5396 4.19997 25.2967C4.45724 25.262 4.70615 25.221 4.94863 25.1706C4.82514 25.3808 4.70658 25.5994 4.59295 25.8265C3.78555 27.433 3.38699 29.2075 3.43137 30.998C3.43588 31.1241 3.44231 31.2572 3.4526 31.389C3.58123 31.3588 3.70987 31.3222 3.8385 31.2875C5.59232 30.7924 7.1972 29.8868 8.51504 28.6487C8.70285 28.4722 8.87844 28.2949 9.04631 28.1177C9.07332 28.3574 9.10676 28.6033 9.1505 28.8543C9.45882 30.6186 10.1988 32.2832 11.3071 33.7055C11.3868 33.8089 11.4717 33.9086 11.556 34.0076C11.6435 33.9086 11.7258 33.8089 11.8094 33.7055C12.931 32.2946 13.6869 30.638 14.0123 28.8777C14.0644 28.6033 14.103 28.3378 14.1313 28.0748C14.312 28.2691 14.5011 28.4652 14.7063 28.6557C16.0024 29.8811 17.5791 30.7843 19.3043 31.2894C19.433 31.326 19.5616 31.3632 19.6902 31.3953C19.6992 31.2635 19.707 31.1317 19.7102 31.0024C19.7612 29.237 19.3801 27.4853 18.5988 25.894C18.4772 25.6417 18.3486 25.4039 18.2129 25.1775C18.4772 25.2311 18.7467 25.2809 19.0284 25.3175C20.8115 25.5617 22.6283 25.3849 24.3275 24.8016C24.4562 24.7562 24.5784 24.7108 24.7019 24.6635C24.6305 24.5531 24.5559 24.4434 24.4825 24.3356C23.4676 22.8773 22.1107 21.6792 20.5257 20.8416ZM19.1107 16.0201C20.8009 15.8001 22.52 15.9701 24.1314 16.5164C23.147 17.8816 21.8497 19.0012 20.3437 19.7852C19.9996 19.9669 19.6453 20.1292 19.2825 20.2715C17.7078 19.6581 16.0045 19.4298 14.3197 19.6061C15.7939 18.7864 17.0435 17.6284 17.9614 16.2314C18.3267 16.1452 18.7096 16.0743 19.1101 16.0188L19.1107 16.0201ZM10.1429 20.7073C9.15114 20.9595 6.99136 21.3033 4.4566 20.4329C6.99779 19.5828 9.15565 19.9366 10.1461 20.1958C10.1158 20.3649 10.1147 20.5378 10.1429 20.7073ZM10.2716 21.0958C10.3473 21.2516 10.451 21.3928 10.5777 21.5126C9.9281 22.2903 8.38319 23.8077 5.81306 24.5639C7.35539 22.4107 9.31387 21.4565 10.2696 21.0958H10.2716ZM5.83493 16.3115C8.40377 17.0847 9.93711 18.6128 10.5835 19.3923C10.5209 19.4501 10.4638 19.5135 10.4131 19.5815C10.3605 19.6533 10.3136 19.729 10.2728 19.8079C9.31837 19.4421 7.36761 18.4747 5.83493 16.3115ZM10.7276 19.8111C10.8577 19.6373 11.0375 19.5052 11.2442 19.4317C11.4509 19.3581 11.6752 19.3463 11.8887 19.3978C12.1023 19.4493 12.2954 19.5617 12.4438 19.7208C12.5921 19.88 12.689 20.0787 12.7221 20.2918C12.7553 20.505 12.7232 20.723 12.6299 20.9183C12.5367 21.1135 12.3865 21.2773 12.1983 21.3888C12.0101 21.5003 11.7924 21.5546 11.5727 21.5448C11.353 21.5349 11.1413 21.4614 10.9643 21.3335C10.7276 21.162 10.5698 20.9055 10.5255 20.6202C10.4811 20.3349 10.5538 20.044 10.7276 19.8111ZM12.6732 19.4011C13.9121 17.9727 15.5457 16.926 17.3774 16.3871C15.8447 18.5031 13.9203 19.451 12.9716 19.8111C12.8974 19.6577 12.7954 19.5188 12.6706 19.4011H12.6732ZM12.834 21.3291C12.8857 21.2581 12.9314 21.183 12.9703 21.1046C14.7401 21.8182 16.2619 23.0179 17.3529 24.5594C14.8252 23.7862 13.308 22.2833 12.6674 21.5152C12.7277 21.4575 12.7834 21.3953 12.834 21.3291ZM13.1022 20.2065C14.0869 19.9606 16.2145 19.632 18.7171 20.4764C16.2087 21.3077 14.0862 20.9646 13.1022 20.7098C13.1311 20.5432 13.1311 20.3731 13.1022 20.2065ZM14.2142 13.3189C15.5772 11.7485 17.371 10.5945 19.3828 9.99398C19.4204 12.0782 18.8394 14.1282 17.7105 15.8946C16.069 16.3063 14.5538 17.102 13.2945 18.2136C14.0064 16.6809 14.3223 14.9998 14.2142 13.3189ZM12.3297 19.1571C12.1751 19.0752 12.0071 19.0203 11.8332 18.995C11.8891 17.9916 12.223 15.8731 13.8444 13.7749C13.8926 16.4086 12.8854 18.3107 12.3297 19.1571ZM9.59043 12.1124C9.89196 10.4426 10.5951 8.86739 11.6415 7.51731C12.6852 8.87093 13.3842 10.4493 13.6804 12.1212C13.7447 12.4761 13.7902 12.8339 13.8167 13.1934C12.7282 14.4767 11.9758 16.0013 11.6248 17.6346C11.2808 15.9984 10.534 14.4694 9.44958 13.1808C9.47743 12.8225 9.52444 12.4659 9.59043 12.1124ZM9.41999 13.7705C11.035 15.8731 11.3598 17.996 11.4138 18.9975C11.24 19.0219 11.0716 19.0752 10.916 19.1552C10.3667 18.3088 9.36468 16.4042 9.41999 13.7705ZM4.98207 14.8735C4.2276 13.3476 3.85288 11.668 3.88867 9.97254C5.54366 10.4674 7.05475 11.3414 8.29701 12.5224C8.56139 12.7732 8.81276 13.037 9.05017 13.3126C8.93764 14.978 9.2419 16.6451 9.93646 18.1688C8.678 17.0458 7.15903 16.2409 5.51141 15.8239C5.32296 15.5256 5.14544 15.2103 4.9795 14.8735H4.98207ZM2.90075 19.7619C1.37558 18.9611 0.0671772 17.8152 -0.915857 16.4193C0.721304 15.8702 2.46794 15.7096 4.18067 15.9507C4.55951 16.0024 4.9184 16.0768 5.26378 16.1563C6.16972 17.5687 7.41391 18.7426 8.88808 19.5758C7.19668 19.3931 5.4853 19.6156 3.90089 20.2242C3.55984 20.0866 3.22604 19.9323 2.90075 19.7619ZM4.14852 24.9158C2.43502 25.146 0.690245 24.9731 -0.941584 24.4112C0.051343 23.0227 1.36739 21.8862 2.89754 21.0958C3.23713 20.9211 3.56901 20.7703 3.89768 20.6385C5.47818 21.2582 7.18849 21.4924 8.88165 21.3209C7.40127 22.1444 6.14865 23.3103 5.23291 24.7171C4.87523 24.8019 4.51327 24.8682 4.14852 24.9158ZM9.0045 27.5842C8.76575 27.858 8.51287 28.1196 8.24684 28.3681C6.9986 29.5417 5.48295 30.4065 3.82564 30.8908C3.79891 29.195 4.18383 27.5173 4.94863 25.9961C5.10983 25.6717 5.28846 25.356 5.48375 25.0501C7.13428 24.641 8.65851 23.8443 9.92488 22.7286C9.22059 24.2498 8.90469 25.9164 9.0045 27.5842ZM10.9147 21.7523C11.0699 21.8347 11.2386 21.8896 11.4132 21.9144C11.3489 22.9184 11.0119 25.0343 9.3814 27.1288C9.34024 24.4945 10.3552 22.5943 10.9115 21.7523H10.9147ZM13.6309 28.8064C13.3229 30.4749 12.6141 32.0475 11.5631 33.394C10.524 32.0372 9.83032 30.4569 9.53962 28.7843C9.47663 28.4295 9.43262 28.0716 9.40777 27.7122C10.5083 26.4196 11.2688 24.8821 11.6229 23.2344C11.966 24.8612 12.706 26.3822 13.7794 27.6674C13.7489 28.0494 13.6982 28.4296 13.6277 28.8064H13.6309ZM13.8045 27.0771C12.2236 24.9959 11.8956 22.9052 11.8364 21.9144C12.007 21.8892 12.1721 21.8365 12.3252 21.7586C12.8668 22.5987 13.8476 24.4793 13.8013 27.0771H13.8045ZM18.2489 26.0598C18.9884 27.5658 19.357 29.2209 19.3249 30.8921C17.6954 30.3993 16.2063 29.539 14.977 28.3801C14.6952 28.1146 14.4286 27.8342 14.1782 27.54C14.2834 25.8808 13.9766 24.2214 13.2842 22.704C14.5349 23.825 16.0447 24.6312 17.6835 25.0533C17.8895 25.3785 18.0771 25.7145 18.2457 26.0598H18.2489ZM19.085 24.9347C18.6978 24.8836 18.3138 24.8109 17.935 24.7171C17.0285 23.3136 15.7867 22.1479 14.3171 21.3209C16.0001 21.5057 17.7036 21.2878 19.2818 20.6858C21.2258 21.4687 22.9 22.782 24.1056 24.4699C22.4914 25.0083 20.7709 25.1675 19.0824 24.9347H19.085Z" fill="white"/>
</g>
<path d="M1.28638 2.60591C1.63176 2.50879 1.97972 2.42491 2.32897 2.34482C2.71487 2.25589 3.29373 2.24958 3.30209 2.88215C3.30209 3.22335 3.0654 3.504 2.70908 3.6295V3.63833C3.11622 3.59923 3.39986 3.81492 3.40243 4.16684C3.405 4.89275 2.72388 5.10402 2.34505 5.1715C1.99709 5.23457 1.6472 5.29764 1.29924 5.36575C1.29324 4.44455 1.28895 3.5246 1.28638 2.60591ZM1.89161 3.58157C1.97329 3.56265 2.05369 3.54499 2.13537 3.52796C2.39264 3.47625 2.70201 3.36146 2.70008 3.0682C2.70008 2.73773 2.39393 2.77683 2.12122 2.83926L1.89032 2.89098C1.88582 3.11992 1.8871 3.35074 1.88903 3.58157H1.89161ZM1.89932 4.80823C1.99323 4.78868 2.08778 4.77166 2.18361 4.75652C2.46017 4.70228 2.80106 4.58182 2.79913 4.25198C2.79913 3.88051 2.47754 3.88051 2.17589 3.94106C2.08199 3.95808 1.98873 3.98016 1.89289 3.99908C1.89354 4.26838 1.89354 4.53641 1.89675 4.80823H1.89932Z" fill="white"/>
<path d="M3.95874 2.0311C4.15941 1.99704 4.35944 1.96425 4.56204 1.9365C4.56654 2.49591 4.56912 3.05027 4.57555 3.60968C4.57555 4.10413 4.74084 4.40433 5.20522 4.35009C5.66959 4.29586 5.82974 3.95529 5.82653 3.45832C5.82653 2.89702 5.81945 2.33824 5.81752 1.77693C6.02012 1.75486 6.22272 1.73342 6.42532 1.71387C6.42918 2.33319 6.43176 2.95315 6.43626 3.57247C6.43626 4.35451 5.98603 4.71462 5.20779 4.80544C4.42955 4.89626 3.97418 4.64588 3.97032 3.87519C3.96603 3.25965 3.96217 2.64496 3.95874 2.0311Z" fill="white"/>
<path d="M9.43471 4.38333C9.19762 4.44926 8.95433 4.49152 8.70857 4.50947C7.6737 4.56623 6.95334 4.16007 6.94948 3.17307C6.94562 2.18606 7.61002 1.55601 8.69506 1.5043C8.93987 1.49148 9.18502 1.52225 9.41864 1.59512C9.40449 1.75909 9.38969 1.92307 9.37554 2.08515C9.1593 1.98638 8.92064 1.94423 8.68284 1.9628C8.02423 1.99496 7.61259 2.485 7.61581 3.08099C7.61903 3.67698 8.0223 4.09007 8.70471 4.05286C8.95619 4.03772 9.25334 3.97718 9.4032 3.89961C9.41542 4.06106 9.42378 4.22566 9.43471 4.38333Z" fill="white"/>
<path d="M9.97571 1.50629C10.1989 1.5025 10.4259 1.4962 10.6485 1.49178C10.6485 1.8849 10.6485 2.27571 10.6485 2.66421C11.0987 2.65727 11.5489 2.65538 11.9953 2.65979C11.9953 2.26877 11.9953 1.87775 11.9953 1.48926C12.22 1.48926 12.4442 1.49157 12.668 1.4962C12.6713 2.46113 12.6713 3.43048 12.6725 4.39731C12.4487 4.39289 12.2223 4.391 11.9998 4.38848C11.9998 3.9634 11.9998 3.54211 11.9998 3.11892C11.5496 3.11514 11.1038 3.11892 10.6523 3.12334C10.6523 3.54652 10.6523 3.97223 10.6523 4.39541C10.4291 4.39541 10.2021 4.40361 9.98085 4.41055C9.97892 3.4412 9.97892 2.47374 9.97571 1.50629Z" fill="white"/>
<path d="M13.3041 1.51367C13.9646 1.53322 14.6271 1.5635 15.2857 1.60449V2.06236C14.8483 2.03398 14.4136 2.01254 13.9775 1.99299C13.9775 2.23264 13.9775 2.4723 13.9775 2.71006C14.3756 2.72709 14.7763 2.74917 15.1738 2.77313V3.23289C14.7744 3.20514 14.3756 3.18559 13.9775 3.16983C13.9775 3.44417 13.9775 3.71347 13.9775 3.98592C14.4168 4.00295 14.8548 4.02881 15.2934 4.05908V4.51695C14.6301 4.47491 13.9676 4.44169 13.306 4.4173C13.3039 3.44859 13.3032 2.48071 13.3041 1.51367Z" fill="white"/>
<path d="M17.2539 1.72303C18.2051 1.83088 18.7332 2.53471 18.728 3.40694C18.7229 4.27916 18.1974 4.83416 17.2371 4.73514C16.2672 4.63108 15.7578 3.97833 15.763 3.0834C15.7681 2.18847 16.2949 1.6196 17.2539 1.72303ZM17.2429 4.27475C17.8636 4.34223 18.0932 3.84526 18.0951 3.32054C18.0951 2.81095 17.8552 2.24839 17.2539 2.18091C16.6525 2.11342 16.401 2.62364 16.401 3.13512C16.3952 3.66426 16.6229 4.2079 17.2429 4.27475Z" fill="white"/>
<path d="M19.2831 2.05518C19.5307 2.09869 19.7777 2.1441 20.024 2.19329C20.3984 2.98164 20.7727 3.76998 21.1451 4.54256H21.1535C21.1625 3.84503 21.167 3.14751 21.1753 2.4525C21.3649 2.49791 21.5554 2.54752 21.7471 2.60134C21.7394 3.51876 21.7308 4.43724 21.7214 5.35676C21.4783 5.30883 21.2351 5.26342 20.9882 5.21612C20.6119 4.44985 20.2389 3.66781 19.862 2.88262H19.8542C19.8431 3.59739 19.8352 4.31068 19.8304 5.0225C19.6375 4.98971 19.4445 4.95944 19.2516 4.93169C19.2636 3.97264 19.2741 3.0138 19.2831 2.05518Z" fill="white"/>
<path d="M1.32556 6.92231C1.48636 6.87438 1.64715 6.82707 1.80794 6.77977C1.8118 7.23954 1.81631 7.69741 1.82531 8.15465C1.82531 8.5608 1.96166 8.79605 2.33406 8.72226C2.70646 8.64847 2.82995 8.35331 2.82995 7.93454C2.82352 7.46406 2.81644 6.99546 2.8113 6.52498C2.97081 6.48588 3.13289 6.45119 3.29432 6.4165C3.30204 6.93933 3.30976 7.46595 3.31748 7.99319C3.3252 8.65414 2.9618 8.9884 2.34114 9.10508C1.72047 9.22175 1.35257 9.04201 1.3455 8.42079C1.33735 7.92046 1.33071 7.42096 1.32556 6.92231Z" fill="white"/>
<path d="M3.87061 6.30008C4.07128 6.26287 4.27066 6.22629 4.47005 6.19413C4.78563 6.76846 5.10186 7.347 5.41873 7.92975H5.42516C5.41873 7.30622 5.41123 6.68101 5.40265 6.05412L5.87024 5.99609C5.88053 6.83174 5.89018 7.66928 5.89661 8.50303C5.69851 8.52889 5.49977 8.55222 5.30103 8.57808C4.98523 7.99345 4.66364 7.41638 4.35042 6.84435H4.34463C4.35042 7.4662 4.35749 8.09057 4.36457 8.70989L3.89762 8.78116C3.89054 7.95371 3.88218 7.12627 3.87061 6.30008Z" fill="white"/>
<path d="M6.46082 5.92824C6.6319 5.90869 6.80427 5.89355 6.97536 5.87842C6.98372 6.71406 6.98951 7.54971 6.99722 8.38536C6.8255 8.40049 6.65377 8.42004 6.48268 8.43707C6.47497 7.60332 6.46768 6.76704 6.46082 5.92824Z" fill="white"/>
<path d="M7.37646 5.84716C7.56942 5.83203 7.76237 5.81689 7.95532 5.80365C8.19073 6.44315 8.42656 7.08308 8.66282 7.72343H8.66925C8.89372 7.05617 9.11947 6.39081 9.34716 5.73049L9.88678 5.71094C9.58449 6.55184 9.28434 7.39463 8.98634 8.23932C8.76251 8.25446 8.54061 8.26518 8.32 8.28031C8.00442 7.46926 7.68991 6.65821 7.37646 5.84716Z" fill="white"/>
<path d="M10.2908 5.70023C10.8233 5.6895 11.3584 5.68257 11.8916 5.68509C11.8916 5.81122 11.8916 5.94619 11.8916 6.078C11.5385 6.078 11.1841 6.078 10.8349 6.078C10.8349 6.28297 10.8349 6.48794 10.8349 6.69102C11.1565 6.6866 11.4781 6.6866 11.7997 6.6866V7.07762C11.4781 7.07762 11.1565 7.07762 10.8349 7.0814C10.8349 7.31475 10.8349 7.5481 10.8349 7.78145C11.1891 7.77431 11.5437 7.77199 11.8987 7.77452V8.16554C11.361 8.16554 10.8285 8.17184 10.2908 8.18509C10.2908 7.35764 10.2908 6.52935 10.2908 5.70023Z" fill="white"/>
<path d="M12.3767 5.68896C12.5697 5.68896 12.769 5.69338 12.9646 5.69779C13.5486 5.70599 14.2419 5.71924 14.2419 6.41235C14.2374 6.70814 14.0271 6.93897 13.6824 6.96924V6.97555C13.829 6.99068 13.9152 7.13132 13.9679 7.24548C14.112 7.57595 14.2548 7.90832 14.4001 8.23879C14.1982 8.22996 13.9975 8.22176 13.7962 8.21041C13.6869 7.94742 13.5788 7.68569 13.4714 7.4227C13.3929 7.23349 13.3235 7.15907 13.0945 7.15277H12.9208C12.9208 7.49585 12.9208 7.83957 12.9208 8.18266C12.7407 8.17825 12.5587 8.17635 12.3793 8.17383L12.3767 5.68896ZM12.9208 6.75733C12.98 6.75733 13.0398 6.76175 13.0984 6.76175C13.3678 6.76868 13.6772 6.74472 13.6772 6.43379C13.6772 6.13359 13.3736 6.0989 13.0984 6.09449C13.0392 6.09071 12.9794 6.09071 12.9215 6.08818C12.9208 6.31081 12.9208 6.53533 12.9208 6.75733Z" fill="white"/>
<path d="M16.1437 6.31467C15.9802 6.23504 15.8032 6.18544 15.6215 6.16836C15.4433 6.15511 15.2131 6.21566 15.2131 6.49C15.2131 6.9176 16.3418 6.82237 16.3373 7.66874C16.3373 8.21742 15.8871 8.38329 15.3687 8.34482C15.1436 8.32636 14.922 8.27908 14.7095 8.20418C14.7242 8.05534 14.741 7.9065 14.7583 7.76271C14.9346 7.86717 15.1323 7.93181 15.3372 7.95191C15.534 7.96515 15.7939 7.88884 15.7984 7.66243C15.7984 7.18312 14.6709 7.30231 14.6741 6.4818C14.6741 5.92492 15.1243 5.74139 15.5745 5.77355C15.7855 5.78702 15.9929 5.83365 16.1888 5.91167C16.1798 6.04285 16.1598 6.18034 16.1437 6.31467Z" fill="white"/>
<path d="M16.7226 5.90967C16.893 5.9267 17.0693 5.94436 17.2371 5.96391C17.2324 6.79892 17.2273 7.6352 17.2217 8.47273C17.05 8.45318 16.8802 8.43552 16.7072 8.4185C16.7123 7.58306 16.7174 6.74679 16.7226 5.90967Z" fill="white"/>
<path d="M18.3145 6.49591C18.0688 6.46123 17.8257 6.42654 17.5787 6.40068C17.5787 6.26698 17.5787 6.13517 17.582 6.00146C18.2425 6.08408 18.903 6.18058 19.5636 6.30671C19.5636 6.43789 19.5636 6.56529 19.5597 6.6971C19.3172 6.65169 19.0728 6.6107 18.8284 6.57096C18.822 7.27228 18.8175 7.97233 18.8111 8.67364C18.6426 8.64778 18.4708 8.62444 18.2965 8.60048C18.3036 7.90232 18.3068 7.19596 18.3145 6.49591Z" fill="white"/>
<path d="M20.6197 8.00566C20.3322 7.45508 20.0408 6.8982 19.7533 6.34131C19.9462 6.37789 20.1321 6.41636 20.3212 6.45988C20.5071 6.84396 20.6936 7.23056 20.8808 7.61086C21.0789 7.31696 21.2744 7.02748 21.4693 6.74683C21.6404 6.79413 21.8095 6.84396 21.9838 6.89567C21.6925 7.28038 21.3985 7.68591 21.1065 8.10909C21.1033 8.42443 21.0988 8.74418 21.0969 9.06141C20.9348 9.02925 20.7721 8.99835 20.6113 8.96681C20.6119 8.64706 20.6152 8.32478 20.6197 8.00566Z" fill="white"/>
<defs>
<linearGradient id="paint0_linear_108_623" x1="0.728677" y1="21.6283" x2="22.598" y2="21.6283" gradientUnits="userSpaceOnUse">
<stop stop-color="#F9BE00"/>
<stop offset="0.33" stop-color="#FFD800"/>
<stop offset="0.73" stop-color="#F29600"/>
<stop offset="0.84" stop-color="#ED8601"/>
<stop offset="1" stop-color="#E56B02"/>
</linearGradient>
<linearGradient id="paint1_linear_108_623" x1="0.728677" y1="21.6283" x2="22.598" y2="21.6283" gradientUnits="userSpaceOnUse">
<stop stop-color="#F9BE00"/>
<stop offset="0.33" stop-color="#FFD800"/>
<stop offset="0.73" stop-color="#F29600"/>
<stop offset="0.84" stop-color="#ED8601"/>
<stop offset="1" stop-color="#E56B02"/>
</linearGradient>
</defs>
</svg>
