<svg width="48" height="73" viewBox="0 0 48 73" fill="none" xmlns="http://www.w3.org/2000/svg">
<path fill-rule="evenodd" clip-rule="evenodd" d="M23.5379 0H23.4985C9.43938 0 0 2.76894 0 2.76894V39.1466V39.2137C0 47.2522 1.88761 54.0068 5.49841 59.5236C6.01669 60.3129 6.56521 61.0732 7.1532 61.8164C7.17375 61.838 7.19183 61.8618 7.20713 61.8874C7.28211 61.9742 7.35446 62.0637 7.42812 62.1505C7.45706 62.1821 7.47548 62.2097 7.50178 62.236C9.93924 65.2036 12.8844 67.541 16.4321 69.6799C18.204 70.7428 19.5891 71.3505 21.6359 72.2108C21.6424 72.2108 21.7595 72.27 21.9358 72.3423L23.4985 73L23.5156 72.9868L23.5379 73L25.0967 72.3423C25.2769 72.2713 25.3914 72.2108 25.3979 72.2108C27.4447 71.3505 29.1087 70.5902 30.8858 69.5181C34.4374 67.3793 37.1051 65.2036 39.5386 62.236L39.6109 62.1505C39.682 62.065 39.7596 61.9756 39.8319 61.8874C39.849 61.8611 39.8674 61.8387 39.8845 61.8164C40.4712 61.0732 41.0198 60.3116 41.5354 59.5236C45.1541 54.0068 47.0391 47.2522 47.0391 39.2137V39.1466V2.76894C47.0391 2.76894 37.5931 0 23.5379 0Z" fill="#646361"/>
<mask id="mask0_50_170" style="mask-type:alpha" maskUnits="userSpaceOnUse" x="2" y="19" width="43" height="52">
<path fill-rule="evenodd" clip-rule="evenodd" d="M3.6608 22.1919L2.47693 22.455V39.1331C2.47693 53.8854 9.28154 64.243 22.6961 69.9216L23.6169 70.3162L24.5377 69.9216C37.9549 64.243 44.7568 53.8854 44.7568 39.1331L44.7503 22.4524L43.5664 22.1893C43.156 22.0986 33.3233 19.9058 23.6103 19.9058C13.8973 19.9058 4.07778 22.0986 3.6608 22.1919Z" fill="url(#paint0_linear_50_170)"/>
</mask>
<g mask="url(#mask0_50_170)">
<path fill-rule="evenodd" clip-rule="evenodd" d="M3.6608 22.1919L2.47693 22.455V39.1331C2.47693 53.8854 9.28154 64.243 22.6961 69.9216L23.6169 70.3162L24.5377 69.9216C37.9549 64.243 44.7568 53.8854 44.7568 39.1331L44.7503 22.4524L43.5664 22.1893C43.156 22.0986 33.3233 19.9058 23.6103 19.9058C13.8973 19.9058 4.07778 22.0986 3.6608 22.1919Z" fill="url(#paint1_linear_50_170)"/>
<path d="M41.9787 43.4701C41.4709 43.1899 40.9632 42.944 40.462 42.7177C40.9632 42.4928 41.4709 42.2494 41.984 41.9745C45.2366 40.2479 48.0282 37.767 50.125 34.7397C50.2789 34.5148 50.4276 34.2899 50.5709 34.0597C50.3197 33.9518 50.0671 33.8611 49.8106 33.7624C46.3439 32.5236 42.6313 32.1312 38.9822 32.618C38.4087 32.6956 37.8549 32.7943 37.309 32.9021C37.5839 32.4299 37.8549 31.93 38.1061 31.4118C39.7461 28.0582 40.549 24.3571 40.4462 20.6254C40.4344 20.3544 40.4239 20.0848 40.3989 19.8098C40.1358 19.8769 39.8727 19.9493 39.6096 20.0216C36.03 21.0707 32.7569 22.9692 30.069 25.5556C29.6835 25.9252 29.3218 26.2988 28.9811 26.6723C28.9246 26.1725 28.8575 25.6634 28.7628 25.1373C28.1195 21.4593 26.5953 17.9918 24.3206 15.031C24.1522 14.8205 23.9799 14.6087 23.8076 14.4009C23.6322 14.6087 23.4617 14.8205 23.2959 15.0362C21.0107 17.9854 19.4759 21.4454 18.8235 25.1188C18.7288 25.645 18.6565 26.1541 18.6012 26.6592C18.2605 26.2856 17.9054 25.9107 17.5226 25.5424C14.8424 22.9437 11.5731 21.0323 7.99375 19.9716C7.73067 19.8993 7.46759 19.8322 7.20451 19.7638C7.18215 20.0348 7.17162 20.3044 7.15978 20.5794C7.04291 24.3083 7.83332 28.0098 9.46307 31.3657C9.69326 31.8432 9.93661 32.3023 10.1839 32.743C9.688 32.6404 9.18157 32.5456 8.65672 32.4799C4.9618 31.9457 1.19239 32.3195 -2.32564 33.569C-2.58872 33.6598 -2.83733 33.7545 -3.08989 33.8571C-2.94257 34.0873 -2.79392 34.3175 -2.64528 34.5424C-0.54864 37.6294 2.26515 40.1619 5.55498 41.9232C6.02327 42.1758 6.48629 42.4046 6.94537 42.6164C6.48629 42.819 6.02458 43.0439 5.54972 43.2965C2.2481 45.0381 -0.582652 47.5534 -2.70053 50.6273C-2.85049 50.8483 -2.99781 51.0785 -3.14645 51.3126C-2.8939 51.4113 -2.63739 51.5099 -2.37957 51.6007C1.12887 52.8702 4.89312 53.2688 8.58963 52.7622C9.1158 52.6898 9.62486 52.6043 10.1208 52.4991C9.86821 52.9376 9.62574 53.3936 9.39335 53.8671C7.74206 57.218 6.92695 60.9189 7.01772 64.6535C7.02693 64.9166 7.04008 65.1941 7.06113 65.469C7.32421 65.4059 7.58729 65.3296 7.85037 65.2573C11.4372 64.2245 14.7195 62.3358 17.4147 59.7536C17.7988 59.3853 18.1579 59.0156 18.5012 58.646C18.5565 59.1459 18.6249 59.6589 18.7143 60.1824C19.3449 63.8621 20.8583 67.334 23.1249 70.3005C23.288 70.5163 23.4617 70.7241 23.634 70.9306C23.8129 70.7241 23.9812 70.5163 24.1522 70.3005C26.4462 67.3578 27.9922 63.9025 28.6575 60.2311C28.7641 59.6589 28.843 59.1051 28.9009 58.5566C29.2705 58.9617 29.6572 59.3708 30.0769 59.7681C32.7277 62.324 35.9523 64.2076 39.4807 65.2612C39.7438 65.3375 40.0069 65.4151 40.27 65.4822C40.2884 65.2073 40.3042 64.9324 40.3107 64.6627C40.4152 60.9805 39.6358 57.3269 38.0377 54.0079C37.7891 53.4817 37.526 52.9858 37.2485 52.5136C37.7891 52.6254 38.3403 52.7293 38.9164 52.8056C42.5631 53.315 46.2787 52.9461 49.7541 51.7296C50.0172 51.6349 50.2671 51.5402 50.5196 51.4415C50.3736 51.2113 50.221 50.9824 50.0711 50.7575C47.9953 47.7161 45.2202 45.217 41.9787 43.4701ZM39.0848 33.4138C42.5414 32.955 46.0574 33.3095 49.3529 34.449C47.3396 37.2963 44.6864 39.6315 41.6064 41.2668C40.9027 41.6456 40.1781 41.9842 39.436 42.281C36.2155 41.0017 32.732 40.5254 29.2863 40.8932C32.3013 39.1835 34.857 36.7682 36.7341 33.8545C37.4813 33.6747 38.2644 33.5269 39.0835 33.4112L39.0848 33.4138ZM20.744 43.1899C18.7157 43.7161 14.2985 44.433 9.11448 42.6177C14.3117 40.8446 18.7249 41.5825 20.7506 42.1231C20.6886 42.4759 20.6864 42.8365 20.744 43.1899V43.1899ZM21.0071 44.0002C21.162 44.3253 21.3741 44.6198 21.6332 44.8697C20.3047 46.4916 17.1451 49.6565 11.8887 51.2337C15.043 46.7429 19.0485 44.7526 21.0032 44.0002H21.0071ZM11.9334 34.0215C17.1872 35.6342 20.3231 38.8215 21.6451 40.4473C21.517 40.5679 21.4003 40.7 21.2965 40.8419C21.1889 40.9917 21.093 41.1496 21.0097 41.3142C19.0577 40.5512 15.068 38.5334 11.9334 34.0215ZM21.9397 41.3207C22.2059 40.9583 22.5736 40.6829 22.9963 40.5294C23.419 40.376 23.8778 40.3514 24.3145 40.4587C24.7512 40.5661 25.1463 40.8005 25.4497 41.1325C25.7531 41.4644 25.9512 41.8789 26.019 42.3235C26.0867 42.7681 26.0211 43.2227 25.8304 43.63C25.6397 44.0373 25.3324 44.3788 24.9475 44.6114C24.5627 44.844 24.1174 44.9572 23.6682 44.9367C23.2189 44.9162 22.7859 44.7629 22.4238 44.4961C21.9398 44.1383 21.6171 43.6034 21.5264 43.0083C21.4357 42.4133 21.5843 41.8065 21.9397 41.3207ZM25.9188 40.4657C28.4526 37.4865 31.7937 35.3033 35.5398 34.1794C32.4051 38.5926 28.4694 40.5696 26.5292 41.3207C26.3775 41.0008 26.1689 40.7111 25.9136 40.4657H25.9188ZM26.2477 44.4869C26.3536 44.3389 26.4469 44.1823 26.5266 44.0187C30.146 45.5071 33.2585 48.0093 35.4898 51.2245C30.3202 49.6118 27.2172 46.4771 25.907 44.875C26.0304 44.7546 26.1443 44.6249 26.2477 44.4869V44.4869ZM26.7962 42.1455C28.8101 41.6325 33.1615 40.9472 38.2798 42.7085C33.1497 44.4422 28.8088 43.7266 26.7962 43.1952C26.8554 42.8478 26.8554 42.4929 26.7962 42.1455V42.1455ZM29.0706 27.7799C31.858 24.5045 35.5267 22.0976 39.6412 20.8451C39.718 25.1922 38.5298 29.4679 36.2211 33.152C32.864 34.0108 29.765 35.6704 27.1895 37.9888C28.6456 34.792 29.2916 31.2857 29.0706 27.7799ZM25.2164 39.9567C24.9001 39.7858 24.5565 39.6714 24.2009 39.6186C24.3154 37.5258 24.9981 33.1073 28.3142 28.731C28.4129 34.2241 26.3529 38.1914 25.2164 39.9567ZM19.6141 25.2635C20.2308 21.7808 21.6688 18.4953 23.8089 15.6795C25.9435 18.5027 27.3731 21.7948 27.9788 25.2819C28.1103 26.022 28.2034 26.7684 28.2576 27.5181C26.0314 30.1948 24.4925 33.3746 23.7747 36.7813C23.0711 33.3685 21.5439 30.1794 19.326 27.4918C19.383 26.7445 19.4791 26.0007 19.6141 25.2635V25.2635ZM19.2655 28.7217C22.5685 33.1073 23.2328 37.535 23.3433 39.6239C22.9877 39.6748 22.6433 39.786 22.3251 39.9527C21.2018 38.1874 19.1524 34.2149 19.2655 28.7217V28.7217ZM10.1892 31.0224C8.64613 27.8398 7.87977 24.3366 7.95298 20.8003C11.3377 21.8325 14.4282 23.6554 16.9688 26.1186C17.5095 26.6418 18.0236 27.1919 18.5091 27.7668C18.279 31.2402 18.9013 34.7173 20.3218 37.8954C17.748 35.5531 14.6414 33.8743 11.2718 33.0047C10.8863 32.3825 10.5233 31.7248 10.1839 31.0224H10.1892ZM5.93251 41.2181C2.81326 39.548 0.137342 37.158 -1.87314 34.2465C1.47515 33.1011 5.04733 32.7662 8.55017 33.2691C9.32495 33.377 10.0589 33.5322 10.7653 33.6979C12.6181 36.6437 15.1627 39.0921 18.1777 40.8301C14.7184 40.4489 11.2184 40.9129 7.97797 42.1823C7.28045 41.8954 6.59777 41.5736 5.93251 41.2181V41.2181ZM8.4844 51.9677C4.98001 52.448 1.41163 52.0872 -1.92575 50.9153C0.104958 48.0193 2.79651 45.6488 5.92593 44.0002C6.62047 43.6359 7.29922 43.3215 7.97139 43.0466C11.2038 44.3391 14.7017 44.8275 18.1645 44.4698C15.1368 46.1874 12.575 48.6192 10.7022 51.5533C9.97066 51.7301 9.23039 51.8684 8.4844 51.9677V51.9677ZM18.4157 57.5332C17.9275 58.1043 17.4103 58.65 16.8662 59.1682C14.3133 61.616 11.2136 63.4198 7.82407 64.4299C7.7694 60.8929 8.55663 57.3937 10.1208 54.221C10.4505 53.5444 10.8158 52.8858 11.2152 52.2479C14.5908 51.3946 17.7081 49.7328 20.2981 47.4058C18.8577 50.5787 18.2116 54.0546 18.4157 57.5332V57.5332ZM22.3225 45.3696C22.6398 45.5414 22.9849 45.6559 23.342 45.7076C23.2104 47.8018 22.5211 52.215 19.1866 56.5834C19.1024 51.089 21.1781 47.1256 22.3159 45.3696H22.3225ZM27.8775 60.0824C27.2477 63.5625 25.798 66.8424 23.6484 69.6507C21.5234 66.821 20.1047 63.5249 19.5102 60.0364C19.3813 59.2962 19.2913 58.5498 19.2405 57.8002C21.4913 55.1041 23.0467 51.8974 23.7708 48.4608C24.4726 51.8538 25.986 55.0263 28.1814 57.7068C28.1188 58.5035 28.0152 59.2964 27.8709 60.0824H27.8775ZM28.2327 56.4756C24.9994 52.1347 24.3285 47.7741 24.2075 45.7076C24.5563 45.6551 24.8941 45.5453 25.2072 45.3827C26.3148 47.1349 28.3208 51.0574 28.2261 56.4756H28.2327ZM37.3221 54.3538C38.8346 57.4948 39.5884 60.947 39.5228 64.4325C36.1901 63.4048 33.1446 61.6104 30.6306 59.1932C30.0543 58.6396 29.5089 58.0547 28.9969 57.4411C29.2119 53.9805 28.5845 50.5194 27.1685 47.3545C29.7264 49.6926 32.8141 51.3741 36.1659 52.2544C36.5871 52.9328 36.9708 53.6336 37.3156 54.3538H37.3221ZM39.0322 52.0071C38.2402 51.9005 37.455 51.749 36.6802 51.5533C34.8261 48.6259 32.2864 46.1946 29.281 44.4698C32.7229 44.8553 36.2069 44.4008 39.4347 43.1452C43.4106 44.778 46.8345 47.5172 49.3003 51.0377C45.9989 52.1606 42.48 52.4927 39.0269 52.0071H39.0322Z" fill="white"/>
</g>
<path d="M2.63083 5.43517C3.3372 5.23259 4.04884 5.05764 4.76311 4.89059C5.55235 4.70511 6.73622 4.69196 6.75332 6.01132C6.75332 6.72295 6.26925 7.30831 5.54052 7.57008V7.58849C6.37317 7.50694 6.95327 7.95681 6.95853 8.69081C6.96379 10.2048 5.57077 10.6455 4.79599 10.7863C4.08436 10.9178 3.36877 11.0493 2.65714 11.1914C2.64486 9.27003 2.63609 7.35128 2.63083 5.43517ZM3.86863 7.47011C4.03569 7.43064 4.20011 7.39381 4.36717 7.3583C4.89333 7.25043 5.52605 7.01103 5.5221 6.39936C5.5221 5.71009 4.89597 5.79164 4.33823 5.92187L3.866 6.02973C3.85679 6.50723 3.85942 6.98867 3.86337 7.47011H3.86863ZM3.88441 10.0286C4.07646 9.9878 4.26983 9.95228 4.46583 9.92071C5.03145 9.80759 5.72862 9.55635 5.72467 8.86839C5.72467 8.09361 5.06697 8.09361 4.45004 8.21989C4.25799 8.25541 4.06726 8.30144 3.87126 8.34091C3.87258 8.90259 3.87258 9.46164 3.87915 10.0286H3.88441Z" fill="white"/>
<path d="M8.09637 4.23685C8.50678 4.16581 8.91588 4.09741 9.33023 4.03953C9.33944 5.2063 9.3447 6.36255 9.35785 7.52932C9.35785 8.5606 9.69591 9.18673 10.6456 9.07361C11.5954 8.96048 11.9229 8.25016 11.9163 7.21362C11.9163 6.0429 11.9019 4.87745 11.8979 3.70674C12.3123 3.6607 12.7266 3.61597 13.141 3.5752C13.1489 4.86693 13.1541 6.15998 13.1633 7.45171C13.1633 9.08282 12.2425 9.83392 10.6509 10.0233C9.05925 10.2128 8.12794 9.69054 8.12005 8.08311C8.11128 6.79927 8.10339 5.51718 8.09637 4.23685Z" fill="white"/>
<path d="M19.2958 9.1421C18.8109 9.2796 18.3133 9.36775 17.8107 9.40519C15.6942 9.52357 14.2209 8.67645 14.213 6.61783C14.2051 4.55922 15.5639 3.24512 17.783 3.13726C18.2837 3.11052 18.7851 3.17469 19.2629 3.32668C19.2339 3.66868 19.2037 4.01069 19.1747 4.34875C18.7325 4.14274 18.2444 4.05483 17.758 4.09356C16.4111 4.16065 15.5692 5.18272 15.5758 6.42578C15.5824 7.66884 16.4071 8.53044 17.8028 8.45283C18.3171 8.42126 18.9248 8.29498 19.2313 8.13318C19.2563 8.46993 19.2734 8.81325 19.2958 9.1421Z" fill="white"/>
<path d="M20.402 3.14245C20.8585 3.13456 21.3228 3.1214 21.778 3.1122C21.778 3.93213 21.778 4.74725 21.778 5.55754C22.6987 5.54307 23.6195 5.53913 24.5324 5.54833C24.5324 4.73278 24.5324 3.91723 24.5324 3.10693C24.9919 3.10693 25.4506 3.11176 25.9083 3.1214C25.9149 5.13398 25.9149 7.15577 25.9176 9.17229C25.4598 9.16308 24.9968 9.15913 24.5416 9.15387C24.5416 8.26729 24.5416 7.38859 24.5416 6.50595C23.6208 6.49806 22.7093 6.50595 21.7858 6.51516C21.7858 7.3978 21.7858 8.2857 21.7858 9.16834C21.3294 9.16834 20.8651 9.18544 20.4126 9.19991C20.4086 7.17813 20.4086 5.16029 20.402 3.14245Z" fill="white"/>
<path d="M27.2093 3.15723C28.5602 3.198 29.9151 3.26114 31.2621 3.34665V4.30163C30.3676 4.24244 29.4784 4.19772 28.5865 4.15694C28.5865 4.65679 28.5865 5.15665 28.5865 5.65256C29.4008 5.68808 30.2203 5.73412 31.0332 5.7841V6.74303C30.2163 6.68516 29.4008 6.64438 28.5865 6.61149C28.5865 7.1837 28.5865 7.74538 28.5865 8.31363C29.4849 8.34915 30.3807 8.40308 31.2778 8.46622V9.42121C29.9212 9.33352 28.5663 9.26424 27.2132 9.21337C27.2088 7.19291 27.2075 5.17419 27.2093 3.15723Z" fill="white"/>
<path d="M35.2872 3.59359C37.2327 3.81852 38.3126 5.28652 38.3021 7.10573C38.2916 8.92495 37.2169 10.0825 35.253 9.87599C33.2694 9.65895 32.2276 8.2975 32.2381 6.43093C32.2486 4.56436 33.3259 3.37786 35.2872 3.59359ZM35.2648 8.91574C36.5342 9.05649 37.0038 8.01994 37.0078 6.92552C37.0078 5.86267 36.5171 4.68933 35.2872 4.54858C34.0573 4.40783 33.543 5.472 33.543 6.53879C33.5311 7.64242 33.9968 8.77631 35.2648 8.91574Z" fill="white"/>
<path d="M39.4373 4.28711C39.9438 4.37787 40.4489 4.47258 40.9527 4.57518C41.7182 6.21945 42.4838 7.86371 43.2454 9.47509H43.2625C43.2809 8.02024 43.2902 6.5654 43.3073 5.11582C43.6949 5.21053 44.0847 5.31401 44.4767 5.42625C44.4609 7.33974 44.4433 9.25541 44.424 11.1733C43.9268 11.0733 43.4296 10.9786 42.9245 10.8799C42.155 9.28172 41.392 7.65061 40.6212 6.01293H40.6054C40.5826 7.50373 40.5664 8.99145 40.5567 10.4761C40.1621 10.4077 39.7675 10.3446 39.3729 10.2867C39.3974 8.28639 39.4189 6.28653 39.4373 4.28711Z" fill="white"/>
<path d="M2.71106 14.4378C3.03991 14.3378 3.36876 14.2391 3.69762 14.1405C3.70551 15.0994 3.71472 16.0544 3.73313 17.0081C3.73313 17.8552 4.012 18.3459 4.77362 18.192C5.53524 18.038 5.7878 17.4224 5.7878 16.549C5.77465 15.5677 5.76018 14.5904 5.74966 13.6091C6.07588 13.5275 6.40736 13.4552 6.73753 13.3828C6.75331 14.4733 6.7691 15.5717 6.78488 16.6713C6.80067 18.0499 6.05746 18.7471 4.78809 18.9904C3.51872 19.2338 2.76631 18.8589 2.75184 17.5632C2.73518 16.5196 2.72158 15.4778 2.71106 14.4378Z" fill="white"/>
<path d="M7.91614 13.1409C8.32655 13.0633 8.73432 12.987 9.1421 12.9199C9.78753 14.1178 10.4343 15.3244 11.0823 16.5399H11.0955C11.0823 15.2394 11.067 13.9354 11.0494 12.6279L12.0057 12.5068C12.0268 14.2498 12.0465 15.9966 12.0597 17.7356C11.6545 17.7895 11.2481 17.8382 10.8416 17.8921C10.1957 16.6727 9.53804 15.4691 8.89743 14.2761H8.8856C8.89743 15.5731 8.9119 16.8753 8.92637 18.167L7.97138 18.3157C7.95692 16.5899 7.93982 14.8641 7.91614 13.1409Z" fill="white"/>
<path d="M13.2133 12.3647C13.5632 12.3239 13.9157 12.2923 14.2656 12.2607C14.2827 14.0037 14.2946 15.7466 14.3104 17.4895C13.9592 17.5211 13.6079 17.5618 13.258 17.5974C13.2423 15.8584 13.2273 14.1142 13.2133 12.3647Z" fill="white"/>
<path d="M15.0865 12.1953C15.4811 12.1637 15.8757 12.1321 16.2703 12.1045C16.7518 13.4383 17.2341 14.773 17.7173 16.1086H17.7304C18.1895 14.7169 18.6512 13.3291 19.1169 11.9519L20.2205 11.9111C19.6023 13.665 18.9884 15.4228 18.3789 17.1846C17.9212 17.2162 17.4673 17.2385 17.0162 17.2701C16.3707 15.5785 15.7275 13.8869 15.0865 12.1953Z" fill="white"/>
<path d="M21.0466 11.8886C22.1357 11.8662 23.2302 11.8518 24.3206 11.857C24.3206 12.1201 24.3206 12.4016 24.3206 12.6765C23.5985 12.6765 22.8737 12.6765 22.1594 12.6765C22.1594 13.104 22.1594 13.5316 22.1594 13.9551C22.8171 13.9459 23.4748 13.9459 24.1325 13.9459V14.7615C23.4748 14.7615 22.8171 14.7615 22.1594 14.7694C22.1594 15.2561 22.1594 15.7428 22.1594 16.2295C22.8838 16.2146 23.609 16.2097 24.3351 16.215V17.0305C23.2354 17.0305 22.1463 17.0437 21.0466 17.0713C21.0466 15.3455 21.0466 13.6179 21.0466 11.8886Z" fill="white"/>
<path d="M25.3124 11.8662C25.7071 11.8662 26.1148 11.8754 26.5147 11.8846C27.7091 11.9017 29.1271 11.9294 29.1271 13.375C29.1179 13.9919 28.6878 14.4734 27.9827 14.5365V14.5496C28.2826 14.5812 28.4589 14.8746 28.5668 15.1126C28.8614 15.8019 29.1534 16.4951 29.4507 17.1844C29.0377 17.166 28.6273 17.1489 28.2155 17.1252C27.9919 16.5767 27.7709 16.0308 27.5513 15.4823C27.3908 15.0877 27.2487 14.9324 26.7804 14.9193H26.4253C26.4253 15.6349 26.4253 16.3518 26.4253 17.0673C26.057 17.0581 25.6847 17.0542 25.3177 17.0489L25.3124 11.8662ZM26.4253 14.0945C26.5463 14.0945 26.6686 14.1037 26.7883 14.1037C27.3395 14.1182 27.9722 14.0682 27.9722 13.4197C27.9722 12.7936 27.3513 12.7212 26.7883 12.712C26.6673 12.7041 26.545 12.7041 26.4266 12.6989C26.4253 13.1632 26.4253 13.6315 26.4253 14.0945V14.0945Z" fill="white"/>
<path d="M33.0168 13.1711C32.6824 13.005 32.3204 12.9016 31.9487 12.866C31.5843 12.8384 31.1134 12.9646 31.1134 13.5368C31.1134 14.4287 33.422 14.2301 33.4127 15.9953C33.4127 17.1397 32.492 17.4857 31.4317 17.4055C30.9714 17.367 30.5181 17.2683 30.0834 17.1121C30.1137 16.8017 30.1479 16.4912 30.1834 16.1913C30.5438 16.4092 30.9482 16.544 31.3673 16.586C31.7698 16.6136 32.3012 16.4544 32.3104 15.9822C32.3104 14.9825 30.0045 15.2311 30.0111 13.5197C30.0111 12.3582 30.9319 11.9754 31.8527 12.0425C32.2841 12.0706 32.7083 12.1679 33.1089 12.3306C33.0905 12.6042 33.0497 12.891 33.0168 13.1711Z" fill="white"/>
<path d="M34.2007 12.3252C34.5493 12.3607 34.9097 12.3975 35.253 12.4383C35.2433 14.1799 35.2328 15.9242 35.2214 17.671C34.8702 17.6302 34.5229 17.5934 34.1691 17.5579C34.1796 15.8154 34.1901 14.0712 34.2007 12.3252Z" fill="white"/>
<path d="M37.4563 13.5489C36.9538 13.4765 36.4566 13.4042 35.9515 13.3502C35.9515 13.0714 35.9515 12.7964 35.9581 12.5176C37.309 12.6899 38.6599 12.8912 40.0108 13.1542C40.0108 13.4278 40.0108 13.6936 40.0029 13.9685C39.507 13.8738 39.0072 13.7883 38.5073 13.7054C38.4942 15.1681 38.485 16.6282 38.4718 18.091C38.1272 18.037 37.776 17.9884 37.4195 17.9384C37.4339 16.4822 37.4405 15.009 37.4563 13.5489Z" fill="white"/>
<path d="M42.1708 16.6979C41.5828 15.5496 40.9869 14.3881 40.3989 13.2266C40.7935 13.3029 41.1737 13.3831 41.5604 13.4739C41.9406 14.2749 42.322 15.0813 42.7048 15.8745C43.11 15.2615 43.5098 14.6577 43.9084 14.0724C44.2583 14.171 44.6043 14.2749 44.9607 14.3828C44.3649 15.1852 43.7637 16.031 43.1665 16.9137C43.1599 17.5714 43.1507 18.2383 43.1468 18.8999C42.8153 18.8328 42.4825 18.7684 42.1537 18.7026C42.155 18.0357 42.1615 17.3635 42.1708 16.6979Z" fill="white"/>
<defs>
<linearGradient id="paint0_linear_50_170" x1="1.49037" y1="45.1103" x2="46.2169" y2="45.1103" gradientUnits="userSpaceOnUse">
<stop stop-color="#F9BE00"/>
<stop offset="0.33" stop-color="#FFD800"/>
<stop offset="0.73" stop-color="#F29600"/>
<stop offset="0.84" stop-color="#ED8601"/>
<stop offset="1" stop-color="#E56B02"/>
</linearGradient>
<linearGradient id="paint1_linear_50_170" x1="1.49037" y1="45.1103" x2="46.2169" y2="45.1103" gradientUnits="userSpaceOnUse">
<stop stop-color="#F9BE00"/>
<stop offset="0.33" stop-color="#FFD800"/>
<stop offset="0.73" stop-color="#F29600"/>
<stop offset="0.84" stop-color="#ED8601"/>
<stop offset="1" stop-color="#E56B02"/>
</linearGradient>
</defs>
</svg>
