<svg width="19" height="20" viewBox="0 0 19 20" fill="none" xmlns="http://www.w3.org/2000/svg">
<g filter="url(#filter0_d_16_2381)">
<path d="M13.9255 2.74312C14.3683 2.3003 15.0863 2.3003 15.5291 2.74312C15.9719 3.18594 15.9719 3.9039 15.5291 4.34672L13.9255 2.74312ZM5.32382 14.552C4.88099 14.9948 4.16304 14.9948 3.72021 14.552C3.27739 14.1092 3.27739 13.3912 3.72021 12.9484L5.32382 14.552ZM15.5291 12.9484C15.9719 13.3912 15.9719 14.1092 15.5291 14.552C15.0863 14.9948 14.3683 14.9948 13.9255 14.552L15.5291 12.9484ZM3.72021 4.34672C3.27739 3.9039 3.27739 3.18594 3.72021 2.74312C4.16304 2.3003 4.88099 2.3003 5.32382 2.74312L3.72021 4.34672ZM15.5291 4.34672L10.4265 9.44936L8.82285 7.84576L13.9255 2.74312L15.5291 4.34672ZM10.4265 9.44936L5.32382 14.552L3.72021 12.9484L8.82285 7.84576L10.4265 9.44936ZM10.4265 7.84576L15.5291 12.9484L13.9255 14.552L8.82285 9.44936L10.4265 7.84576ZM13.9255 14.552L3.72021 4.34672L5.32382 2.74312L15.5291 12.9484L13.9255 14.552Z" fill="#22284B"/>
<path d="M13.9255 2.74312C14.3683 2.3003 15.0863 2.3003 15.5291 2.74312C15.9719 3.18594 15.9719 3.9039 15.5291 4.34672L13.9255 2.74312ZM5.32382 14.552C4.88099 14.9948 4.16304 14.9948 3.72021 14.552C3.27739 14.1092 3.27739 13.3912 3.72021 12.9484L5.32382 14.552ZM15.5291 12.9484C15.9719 13.3912 15.9719 14.1092 15.5291 14.552C15.0863 14.9948 14.3683 14.9948 13.9255 14.552L15.5291 12.9484ZM3.72021 4.34672C3.27739 3.9039 3.27739 3.18594 3.72021 2.74312C4.16304 2.3003 4.88099 2.3003 5.32382 2.74312L3.72021 4.34672ZM15.5291 4.34672L10.4265 9.44936L8.82285 7.84576L13.9255 2.74312L15.5291 4.34672ZM10.4265 9.44936L5.32382 14.552L3.72021 12.9484L8.82285 7.84576L10.4265 9.44936ZM10.4265 7.84576L15.5291 12.9484L13.9255 14.552L8.82285 9.44936L10.4265 7.84576ZM13.9255 14.552L3.72021 4.34672L5.32382 2.74312L15.5291 12.9484L13.9255 14.552Z" fill="url(#paint0_linear_16_2381)"/>
</g>
<defs>
<filter id="filter0_d_16_2381" x="0.479032" y="0.955611" width="18.2913" height="18.2928" filterUnits="userSpaceOnUse" color-interpolation-filters="sRGB">
<feFlood flood-opacity="0" result="BackgroundImageFix"/>
<feColorMatrix in="SourceAlpha" type="matrix" values="0 0 0 0 0 0 0 0 0 0 0 0 0 0 0 0 0 0 127 0" result="hardAlpha"/>
<feOffset dy="1.45455"/>
<feGaussianBlur stdDeviation="1.45455"/>
<feComposite in2="hardAlpha" operator="out"/>
<feColorMatrix type="matrix" values="0 0 0 0 0 0 0 0 0 0 0 0 0 0 0 0 0 0 0.25 0"/>
<feBlend mode="normal" in2="BackgroundImageFix" result="effect1_dropShadow_16_2381"/>
<feBlend mode="normal" in="SourceGraphic" in2="effect1_dropShadow_16_2381" result="shape"/>
</filter>
<linearGradient id="paint0_linear_16_2381" x1="19.0554" y1="11.9439" x2="5.96451" y2="15.2166" gradientUnits="userSpaceOnUse">
<stop stop-color="#FFA402"/>
<stop offset="0.0001" stop-color="#0E6DBE"/>
<stop offset="1" stop-color="#0085FF"/>
</linearGradient>
</defs>
</svg>
